<?xml version="1.0" encoding="iso-8859-1"?>
<!-- Uploaded to: SVG Repo, www.svgrepo.com, Generator: SVG Repo Mixer Tools -->
<!DOCTYPE svg PUBLIC "-//W3C//DTD SVG 1.1//EN" "http://www.w3.org/Graphics/SVG/1.1/DTD/svg11.dtd">
<svg fill="#000000" height="800px" width="800px" version="1.1" id="Capa_1" xmlns="http://www.w3.org/2000/svg" xmlns:xlink="http://www.w3.org/1999/xlink" 
	 viewBox="0 0 455.731 455.731" xml:space="preserve">
<g>
	<path d="M228.071,95.321c-72.877,0-132.167,59.29-132.167,132.167c0,25.393,7.217,50.052,20.869,71.311l3.281,5.109l-12.855,45.658
		l47.238-12.16l4.872,2.975c20.654,12.609,44.432,19.274,68.762,19.274c72.877,0,132.166-59.29,132.166-132.167
		S300.948,95.321,228.071,95.321z M309.117,268.109l-1.649,7.702c-1.86,8.69-7.021,16.377-14.508,21.166
		c-9.453,6.047-21.706,9.016-37.28,4.612c-48.333-13.667-75.667-45.667-90.333-65.667c-14.667-20-20.333-40-16.667-56.333
		c2.459-10.954,10.465-19.359,15.472-23.708c2.453-2.13,5.635-3.214,8.878-3.037l10.328,0.563c2.034,0.111,3.828,1.367,4.629,3.24
		l15.045,35.201c0.804,1.881,0.465,4.055-0.872,5.602l-13.096,15.15c-1.062,1.228-1.247,2.978-0.499,4.419
		c17.248,33.224,48.682,46.389,58.066,49.687c1.599,0.562,3.371,0.031,4.407-1.312l13.703-17.764
		c1.524-1.976,4.211-2.636,6.477-1.591l34.905,16.089C308.398,263.177,309.641,265.661,309.117,268.109z"/>
	<path d="M0,0v455.731h455.731V0H0z M228.071,386.655c-27.347,0-54.125-7-77.814-20.292L68.494,387.41l22.323-79.284
		c-14.355-24.387-21.913-52.134-21.913-80.638c0-87.765,71.402-159.167,159.167-159.167s159.166,71.402,159.166,159.167
		C387.237,315.253,315.836,386.655,228.071,386.655z"/>
</g>
</svg>